subject01_walk1_RRA_states
nRows=4
nColumns=47

# SIMM Motion File Header:
name subject01_walk1_RRA_states
datacolumns 47
datarows 4
otherdata 1
range 0.99600000000000022000 0.99750000000000016000
endheader
time	pelvis_tx	pelvis_ty	pelvis_tz	pelvis_tilt	pelvis_list	pelvis_rotation	hip_flexion_r	hip_adduction_r	hip_rotation_r	knee_angle_r	ankle_angle_r	subtalar_angle_r	mtp_angle_r	hip_flexion_l	hip_adduction_l	hip_rotation_l	knee_angle_l	ankle_angle_l	subtalar_angle_l	mtp_angle_l	lumbar_extension	lumbar_bending	lumbar_rotation	pelvis_tx_u	pelvis_ty_u	pelvis_tz_u	pelvis_tilt_u	pelvis_list_u	pelvis_rotation_u	hip_flexion_r_u	hip_adduction_r_u	hip_rotation_r_u	knee_angle_r_u	ankle_angle_r_u	subtalar_angle_r_u	mtp_angle_r_u	hip_flexion_l_u	hip_adduction_l_u	hip_rotation_l_u	knee_angle_l_u	ankle_angle_l_u	subtalar_angle_l_u	mtp_angle_l_u	lumbar_extension_u	lumbar_bending_u	lumbar_rotation_u
      0.99600000000000022000	      0.59155149346015545000	      1.04520059469324790000	      0.04875398478633851500	      5.23164657826030500000	      0.00962455515386188320	      0.53557915312278914000	     -2.85334020443218120000	      1.92985269929093190000	     -3.93564057766995570000	    -11.54545537411884100000	      7.90910676090015310000	      0.05106348516352923700	     -0.00110452321424567460	     18.19280112891503600000	     -3.23166072764172570000	     -4.06057430004286870000	    -58.75153286891524800000	      2.12479876843009660000	     -0.00357794419800326400	     -0.04845614740701188100	    -16.22933728145368800000	      1.84029852409841710000	      0.51421319783889097000	     -0.13221153501955049000	      0.03519896299953451100	      0.08165117831551069200	      1.33106413987436350000	      4.04156203401750960000	    -18.07215569485061500000	    -87.97784196930084000000	      1.39469622383172780000	     10.41210128310598500000	     50.00839019244901400000	     15.89305028865321200000	      0.30099465884099313000	     -0.40189562253214067000	     58.12905306277474400000	      8.88384204515842060000	    -28.91618837272873700000	    222.76384348107538000000	     -1.11553700919306920000	      0.00764325398481156570	      0.29313688385803893000	     -9.89214858543637380000	    -13.51542128659333200000	     22.44787165892312700000
      0.99650000000000016000	      0.59148535989352369000	      1.04521800863837640000	      0.04879474448299837800	      5.23230414089866970000	      0.01159326026393352400	      0.52656853512428026000	     -2.89730127628999900000	      1.93059300469796940000	     -3.93047217771113910000	    -11.52048203790895900000	      7.91703413601957080000	      0.05121295862367638400	     -0.00130534896330242050	     18.22175555244511700000	     -3.22732659837810590000	     -4.07516021028909400000	    -58.63985374823861500000	      2.12412906643438730000	     -0.00357410978525439560	     -0.04830972399245695600	    -16.23427591043262900000	      1.83359838234393950000	      0.52541099445384509000	     -0.13232226485882739000	      0.03445677385068228500	      0.08138768051675743200	      1.29909858276800370000	      3.83313836408345580000	    -17.97036434514172900000	    -87.86660170349740900000	      1.56666123225329670000	     10.26200410472420700000	     49.88532820114906500000	     15.81699635768980400000	      0.29697493399512392000	     -0.40201060671404704000	     57.68854840228070200000	      8.45275766901754540000	    -29.42738819158530800000	    223.95242809462212000000	     -1.56287592843382830000	      0.00768700527523001440	      0.29255351097005544000	     -9.86221572263797870000	    -13.28500948908535800000	     22.34343775926239300000
      0.99700000000000022000	      0.59141917165935765000	      1.04523505143434540000	      0.04883537253431279700	      5.23294559125859940000	      0.01345756481642722600	      0.51760874343209151000	     -2.94120696163353970000	      1.93141950428561080000	     -3.92537808184244690000	    -11.49556967593494200000	      7.92492393885535500000	      0.05136045104496904400	     -0.00150651680173857530	     18.25048958405694300000	     -3.22320789538006110000	     -4.09000162025966760000	    -58.52758065369686600000	      2.12323628592953550000	     -0.00357025705814789870	     -0.04816359458473666600	    -16.23919934851316100000	      1.82701366143930330000	      0.53655675820740167000	     -0.13243021024350246000	      0.03371438926460761800	      0.08112458798194981100	      1.26661959041460760000	      3.62394257464679680000	    -17.86884519181965900000	    -87.75629450231485900000	      1.73948901361504360000	     10.11485818852765200000	     49.76448568437168500000	     15.74204308948325200000	      0.29288953443692506000	     -0.40204369088282510000	     57.24748470552391000000	      8.02212116971462840000	    -29.93817951150629500000	    225.13973394613834000000	     -2.00785367922586340000	      0.00773167886401668770	      0.29196598817325264000	     -9.83139096660402070000	    -13.05371682919263800000	     22.23973968899049300000
      0.99750000000000016000	      0.59135293014729995000	      1.04525172298911030000	      0.04887586913935602200	      5.23357067397554230000	      0.01521707588018606300	      0.50869964016806346000	     -2.98505772588670660000	      1.93233263901567280000	     -3.92035681587385510000	    -11.47071718872265000000	      7.93277648902831260000	      0.05150566410210237500	     -0.00170760404802709920	     18.27900294873591100000	     -3.21930439145408800000	     -4.10509830488329540000	    -58.41471423307977100000	      2.12212160501554160000	     -0.00356637671857017210	     -0.04801775891815843200	    -16.24410715201981900000	      1.82054480980633930000	      0.54765085987562789000	     -0.13253537115500788000	      0.03297177480635320900	      0.08086190452741690000	      1.23362174759409830000	      3.41398563939196010000	    -17.76762452125755900000	    -87.64691864031446800000	      1.91318671762241840000	      9.97073249923552400000	     49.64582700425734900000	     15.66890233719898100000	      0.28776748748979203000	     -0.40325665039746966000	     56.80589082252569000000	      7.59200035805557680000	    -30.44846033748390500000	    226.32572578032020000000	     -2.45047753588823620000	      0.00778412989229216280	      0.29137307498346610000	     -9.79967015356909070000	    -12.82155890451100100000	     22.13679581328680600000
